<svg data-v-423bf9ae="" xmlns="http://www.w3.org/2000/svg" viewBox="0 0 1090.8670470522507 193" class="fontAboveSlogan"><!----><!----><!----><g data-v-423bf9ae="" id="25a1b521-f565-4ea7-8a8c-57f9975f2a88" fill="#004A66" transform="matrix(12.383900246262511,0,0,12.383900246262511,365.8396324948129,-41.36374348079498)"><path d="M3.49 12.14L4.12 12.14Q5.53 12.14 6.10 11.64Q6.66 11.14 6.66 10.25L6.66 10.25Q6.66 9.28 6.08 8.83Q5.49 8.37 4.13 8.37L4.13 8.37L3.46 8.37Q3.46 9.38 3.46 10.30Q3.46 11.23 3.49 12.14L3.49 12.14ZM4.31 4.30L3.49 4.30Q3.46 5.14 3.46 5.98Q3.46 6.82 3.46 7.67L3.46 7.67L4.09 7.67Q5.22 7.67 5.74 7.25Q6.26 6.83 6.26 5.95L6.26 5.95Q6.26 5.07 5.78 4.68Q5.31 4.30 4.31 4.30L4.31 4.30ZM0.53 3.58L4.76 3.58Q6.33 3.58 7.11 4.22Q7.88 4.86 7.88 5.88L7.88 5.88Q7.88 6.58 7.46 7.16Q7.03 7.74 6.01 7.98L6.01 7.98Q6.65 8.09 7.10 8.31Q7.55 8.53 7.83 8.82Q8.12 9.11 8.25 9.48Q8.37 9.86 8.37 10.26L8.37 10.26Q8.37 10.74 8.18 11.20Q7.99 11.66 7.53 12.03Q7.07 12.40 6.28 12.63Q5.49 12.85 4.30 12.85L4.30 12.85L0.53 12.85L0.53 12.21L1.74 12.08Q1.76 11.20 1.76 10.31Q1.76 9.42 1.76 8.51L1.76 8.51L1.76 7.92Q1.76 7.03 1.76 6.14Q1.76 5.25 1.74 4.35L1.74 4.35L0.53 4.23L0.53 3.58ZM12.82 12.08L12.82 12.08Q13.43 12.08 13.88 11.84Q14.34 11.59 14.70 11.24L14.70 11.24Q14.39 10.88 14.09 10.51Q13.79 10.14 13.45 9.76L13.45 9.76Q13.05 9.28 12.70 8.85Q12.35 8.41 12.03 8.05L12.03 8.05Q11.41 8.46 11.16 8.97Q10.91 9.49 10.91 10.05L10.91 10.05Q10.91 10.46 11.04 10.83Q11.17 11.20 11.42 11.48Q11.66 11.76 12.02 11.92Q12.38 12.08 12.82 12.08ZM12.31 6.48L12.31 6.48Q12.43 6.62 12.58 6.77Q12.73 6.92 12.89 7.08L12.89 7.08Q13.38 6.66 13.64 6.20Q13.90 5.74 13.90 5.22L13.90 5.22Q13.90 4.63 13.62 4.27Q13.33 3.91 12.78 3.91L12.78 3.91Q12.24 3.91 11.93 4.21Q11.62 4.52 11.62 5.00L11.62 5.00Q11.62 5.35 11.78 5.71Q11.94 6.08 12.31 6.48ZM18.89 6.78L17.92 6.93Q17.51 7.94 17.05 8.87Q16.59 9.80 15.99 10.64L15.99 10.64Q16.27 10.99 16.54 11.33Q16.81 11.68 17.07 12.00L17.07 12.00L18.58 12.31L18.58 12.85Q18.24 12.92 17.95 12.96Q17.67 12.99 17.35 12.99L17.35 12.99Q16.97 12.99 16.70 12.94Q16.42 12.89 16.20 12.78Q15.97 12.67 15.78 12.49Q15.58 12.31 15.36 12.04L15.36 12.04L15.11 11.75Q14.66 12.28 14 12.67Q13.34 13.06 12.32 13.06L12.32 13.06Q11.63 13.06 11.09 12.86Q10.54 12.66 10.16 12.30Q9.79 11.94 9.58 11.47Q9.38 10.99 9.38 10.46L9.38 10.46Q9.38 9.55 9.95 8.88Q10.51 8.20 11.66 7.66L11.66 7.66L11.58 7.56Q11.05 6.99 10.72 6.49Q10.39 5.99 10.39 5.32L10.39 5.32Q10.39 4.87 10.57 4.52Q10.75 4.16 11.07 3.91Q11.40 3.65 11.84 3.51Q12.29 3.37 12.82 3.37L12.82 3.37Q13.87 3.37 14.46 3.88Q15.04 4.40 15.04 5.18L15.04 5.18Q15.04 5.89 14.60 6.42Q14.15 6.94 13.23 7.45L13.23 7.45Q13.44 7.67 13.67 7.92Q13.90 8.18 14.18 8.50L14.18 8.50Q14.50 8.88 14.88 9.30Q15.25 9.73 15.61 10.18L15.61 10.18Q16.53 8.69 17.11 6.96L17.11 6.96L15.83 6.78L15.83 6.19L18.89 6.19L18.89 6.78ZM22.25 9.18L24.78 9.18L23.53 5.61L22.25 9.18ZM27.51 12.11L28.49 12.22L28.49 12.85L24.53 12.85L24.53 12.22L25.77 12.07L25.02 9.90L21.99 9.90L21.22 12.03L22.47 12.21L22.47 12.85L19.29 12.85L19.29 12.21L20.50 12.03L23.56 3.58L24.40 3.58L27.51 12.11Z"></path></g><!----><!----><g data-v-423bf9ae="" id="cbfc56af-b942-48fd-8db5-0b3ad2af3dac" fill="#004A66" transform="matrix(5.780346757080136,0,0,5.780346757080136,-1.6185019470485713,113.75144144839419)"><path d="M0.28 3.65L0.28 3.65Q0.28 3.50 0.67 3.50L0.67 3.50Q0.81 3.50 1.32 3.53Q1.82 3.56 2.25 3.56L2.25 3.56Q2.52 3.56 2.77 3.54Q3.01 3.53 3.49 3.53L3.49 3.53Q3.79 3.53 3.79 3.72L3.79 3.72Q3.79 3.96 3.30 3.96L3.30 3.96Q3.02 3.96 2.90 4.54Q2.77 5.11 2.77 5.71L2.77 5.71L2.77 6.23Q2.77 6.57 2.76 6.99Q2.74 7.42 2.74 7.52L2.74 7.52Q2.74 7.87 2.83 7.97Q2.91 8.06 3.22 8.06L3.22 8.06Q3.25 8.06 3.77 8.06Q4.28 8.05 5.52 8.05L5.52 8.05Q5.63 8.05 5.89 8.06Q6.16 8.06 6.77 8.07Q7.38 8.08 8.16 8.08L8.16 8.08Q8.26 8.08 8.29 7.84L8.29 7.84Q8.32 7.56 8.32 6.13L8.32 6.13L8.32 5.38Q8.32 4.83 8.20 4.51Q8.08 4.19 7.90 4.09Q7.73 3.99 7.55 3.96Q7.38 3.93 7.26 3.88Q7.14 3.84 7.14 3.70Q7.14 3.56 7.69 3.56L7.69 3.56Q7.83 3.56 8.29 3.57Q8.75 3.58 9.04 3.58L9.04 3.58Q9.18 3.58 9.52 3.57Q9.86 3.56 10.14 3.56L10.14 3.56Q10.46 3.56 10.46 3.74Q10.46 3.92 10.26 3.92L10.26 3.92Q9.87 3.92 9.67 4.16Q9.46 4.40 9.46 4.79L9.46 4.79Q9.46 5.25 9.44 6.42Q9.42 7.59 9.42 8.19L9.42 8.19Q9.42 8.51 9.41 9.20Q9.39 9.90 9.39 10.29L9.39 10.29L9.39 10.81Q9.39 11.23 9.42 11.58Q9.45 11.94 9.45 12.10L9.45 12.10Q9.45 13.01 10.63 13.13L10.63 13.13Q10.79 13.13 10.79 13.29L10.79 13.29Q10.79 13.38 10.65 13.41Q10.51 13.44 10.11 13.44L10.11 13.44Q9.95 13.44 9.60 13.40Q9.24 13.37 9.03 13.37L9.03 13.37Q8.78 13.37 8.42 13.40Q8.06 13.44 7.71 13.44L7.71 13.44Q7.55 13.44 7.48 13.44Q7.41 13.44 7.33 13.42Q7.25 13.40 7.23 13.36Q7.21 13.33 7.21 13.26L7.21 13.26Q7.21 13.17 7.35 13.10Q7.49 13.03 7.66 12.99Q7.83 12.95 7.99 12.83Q8.15 12.71 8.18 12.53L8.18 12.53Q8.27 12.03 8.27 11.51L8.27 11.51Q8.27 11.37 8.28 11.12Q8.29 10.86 8.29 10.75L8.29 10.75Q8.29 10.50 8.30 9.93Q8.32 9.35 8.32 9.03L8.32 9.03Q8.32 8.82 8.15 8.74Q7.98 8.65 7.43 8.65L7.43 8.65Q7.22 8.65 6.47 8.68L6.47 8.68L5.71 8.69Q5.10 8.69 4.33 8.67Q3.56 8.65 3.14 8.65L3.14 8.65Q2.93 8.65 2.86 8.74Q2.79 8.82 2.79 9.17Q2.79 9.52 2.76 10.08Q2.73 10.64 2.73 10.89L2.73 10.89L2.73 11.49Q2.73 12.10 2.84 12.39Q2.95 12.68 3.39 12.96L3.39 12.96Q3.50 13.03 3.99 13.03L3.99 13.03Q4.09 13.03 4.17 13.08Q4.26 13.13 4.26 13.19L4.26 13.19Q4.26 13.44 3.81 13.44L3.81 13.44Q3.39 13.44 3.12 13.41Q2.84 13.38 2.65 13.38L2.65 13.38Q2.25 13.38 1.81 13.42Q1.36 13.45 1.13 13.45L1.13 13.45Q0.48 13.45 0.48 13.24L0.48 13.24Q0.48 13.12 0.61 13.07Q0.74 13.02 0.91 13.00Q1.08 12.98 1.26 12.82Q1.44 12.66 1.51 12.35L1.51 12.35Q1.55 12.11 1.62 10.91Q1.69 9.70 1.69 8.61L1.69 8.61L1.69 7.81Q1.69 7.63 1.70 7.12Q1.71 6.61 1.71 6.30L1.71 6.30Q1.71 5.24 1.62 4.63L1.62 4.63Q1.58 4.28 1.25 4.09Q0.92 3.89 0.57 3.89L0.57 3.89Q0.43 3.89 0.36 3.80Q0.28 3.71 0.28 3.65ZM18.69 8.69L18.69 8.69Q18.69 6.34 20.10 4.84Q21.52 3.33 24.11 3.33L24.11 3.33Q25.31 3.33 26.28 3.68Q27.24 4.03 27.80 4.54Q28.36 5.05 28.74 5.71Q29.12 6.37 29.26 6.92Q29.40 7.48 29.40 7.95L29.40 7.95Q29.40 9.86 28.66 11.16Q27.92 12.47 26.70 13.07Q25.49 13.66 23.91 13.66L23.91 13.66Q22.25 13.66 21.03 12.94Q19.82 12.21 19.26 11.10Q18.69 10.00 18.69 8.69ZM19.92 7.98L19.92 7.98Q19.92 8.54 20.08 9.19Q20.23 9.84 20.58 10.54Q20.93 11.23 21.43 11.78Q21.92 12.33 22.69 12.69Q23.45 13.05 24.36 13.05L24.36 13.05Q24.84 13.05 25.36 12.90Q25.89 12.75 26.40 12.45Q26.92 12.14 27.33 11.70Q27.73 11.26 27.99 10.62Q28.25 9.98 28.25 9.24L28.25 9.24Q28.25 6.71 26.92 5.30Q25.59 3.89 23.63 3.89L23.63 3.89Q22.09 3.89 21.01 4.93Q19.92 5.96 19.92 7.98ZM37.30 3.68L37.30 3.68Q37.30 3.61 37.31 3.58Q37.32 3.56 37.39 3.53Q37.46 3.50 37.62 3.50Q37.77 3.50 38.26 3.53Q38.75 3.56 39.20 3.56L39.20 3.56Q39.48 3.56 39.71 3.54Q39.94 3.53 40.52 3.53L40.52 3.53Q40.81 3.53 40.81 3.72L40.81 3.72Q40.81 3.85 40.71 3.88Q40.61 3.91 40.47 3.92Q40.32 3.93 40.17 4.02Q40.03 4.10 39.93 4.43Q39.83 4.76 39.83 5.32L39.83 5.32L39.83 5.71Q39.83 6.37 39.82 7.37Q39.82 8.37 39.82 8.74L39.82 8.74Q39.82 9.17 39.82 9.39Q39.83 9.62 39.86 10.04Q39.89 10.47 39.93 10.72Q39.98 10.96 40.10 11.32Q40.21 11.68 40.37 11.89Q40.53 12.10 40.77 12.35Q41.02 12.60 41.34 12.73Q41.66 12.87 42.10 12.96Q42.53 13.05 43.06 13.05L43.06 13.05Q43.51 13.05 43.76 13.03Q44.02 13.02 44.46 12.94Q44.90 12.87 45.16 12.72Q45.42 12.57 45.74 12.27Q46.07 11.97 46.26 11.54Q46.44 11.10 46.56 10.43Q46.69 9.76 46.69 8.90L46.69 8.90Q46.69 7.49 46.68 6.75Q46.68 6.01 46.68 5.94L46.68 5.94Q46.68 5.45 46.66 5.17Q46.63 4.89 46.52 4.55Q46.40 4.21 46.17 4.06L46.17 4.06Q46.03 3.96 45.81 3.93Q45.58 3.89 45.44 3.87Q45.30 3.85 45.30 3.75L45.30 3.75Q45.30 3.53 45.58 3.53L45.58 3.53Q45.67 3.53 46.13 3.54Q46.59 3.56 46.66 3.56L46.66 3.56Q47.00 3.56 47.38 3.54Q47.75 3.51 47.85 3.51L47.85 3.51Q48.15 3.51 48.15 3.70L48.15 3.70Q48.15 3.81 47.84 3.98Q47.54 4.16 47.47 4.30L47.47 4.30Q47.32 4.59 47.32 5.22L47.32 5.22Q47.32 5.32 47.33 5.62Q47.33 5.92 47.33 6.16L47.33 6.16Q47.33 8.85 47.11 10.28Q46.89 11.70 46.43 12.36Q45.98 13.01 45.07 13.40L45.07 13.40Q44.32 13.71 43.06 13.71L43.06 13.71Q40.73 13.71 39.75 12.81L39.75 12.81Q38.98 12.10 38.79 11.09Q38.61 10.09 38.61 7.64L38.61 7.64L38.61 7.41Q38.61 6.86 38.63 6.20Q38.64 5.54 38.64 5.39L38.64 5.39Q38.64 4.62 38.46 4.33Q38.28 4.05 37.60 3.95L37.60 3.95Q37.30 3.91 37.30 3.68ZM56.25 10.82L56.25 10.82Q56.25 10.53 56.45 10.53L56.45 10.53Q56.63 10.53 56.67 10.67L56.67 10.67Q56.81 11.00 56.93 11.25Q57.05 11.49 57.32 11.85Q57.58 12.21 57.89 12.44Q58.20 12.67 58.68 12.84Q59.16 13.01 59.74 13.01L59.74 13.01Q60.79 13.01 61.43 12.45Q62.06 11.90 62.06 11.00L62.06 11.00Q62.06 10.35 61.63 9.90Q61.19 9.46 60.63 9.27Q60.07 9.09 59.21 8.77Q58.35 8.46 57.81 8.13L57.81 8.13Q56.53 7.38 56.53 6.08L56.53 6.08Q56.53 4.83 57.44 4.08Q58.34 3.33 59.78 3.33L59.78 3.33Q60.31 3.33 61.05 3.56Q61.78 3.79 61.80 3.79L61.80 3.79Q61.84 3.79 61.95 3.74Q62.06 3.68 62.12 3.68L62.12 3.68Q62.30 3.68 62.33 3.79L62.33 3.79Q62.62 5.49 62.62 5.70L62.62 5.70Q62.62 6.09 62.43 6.09L62.43 6.09Q62.30 6.09 62.23 5.89L62.23 5.89Q62.06 5.49 61.90 5.24Q61.74 4.98 61.67 4.91Q61.60 4.84 61.31 4.58L61.31 4.58Q60.55 3.91 59.47 3.91L59.47 3.91Q58.60 3.91 58.02 4.33Q57.43 4.75 57.43 5.46L57.43 5.46Q57.43 6.09 57.77 6.50Q58.11 6.90 58.69 7.13Q59.26 7.35 59.89 7.55Q60.52 7.74 61.23 8.09Q61.94 8.44 62.40 8.93L62.40 8.93Q62.96 9.53 62.96 10.43L62.96 10.43Q62.96 11.90 62.02 12.76Q61.08 13.62 59.70 13.62L59.70 13.62Q58.73 13.62 58.14 13.52Q57.55 13.41 56.94 13.09L56.94 13.09Q56.76 12.98 56.50 12.00Q56.25 11.02 56.25 10.82ZM71.05 3.65L71.05 3.65Q71.05 3.46 71.44 3.46L71.44 3.46Q71.50 3.46 71.62 3.47Q71.75 3.49 71.82 3.49L71.82 3.49Q71.86 3.49 73.14 3.52Q74.41 3.56 75.24 3.56L75.24 3.56Q75.53 3.56 76.69 3.53Q77.84 3.50 78.04 3.50L78.04 3.50Q78.30 3.50 78.30 3.82L78.30 3.82Q78.30 3.91 78.22 4.38Q78.13 4.84 78.13 5.25L78.13 5.25Q78.13 5.38 78.06 5.47Q77.99 5.56 77.91 5.56L77.91 5.56Q77.70 5.56 77.70 5.26L77.70 5.26Q77.70 4.89 77.46 4.58Q77.22 4.27 76.87 4.26L76.87 4.26Q75.61 4.16 74.94 4.16L74.94 4.16L74.58 4.16Q73.85 4.16 73.73 4.26Q73.61 4.37 73.58 5.01L73.58 5.01Q73.53 6.02 73.53 7.35L73.53 7.35Q73.53 8.05 73.79 8.06L73.79 8.06L74.14 8.06L74.73 8.06L75.17 8.06Q76.01 8.06 76.29 8.01Q76.57 7.95 76.79 7.80L76.79 7.80Q77.06 7.62 77.11 7.28L77.11 7.28Q77.15 7.04 77.31 7.04L77.31 7.04Q77.43 7.04 77.46 7.08Q77.49 7.13 77.49 7.27L77.49 7.27Q77.49 7.36 77.43 7.91Q77.38 8.46 77.38 8.74L77.38 8.74Q77.38 9.00 77.40 9.24Q77.42 9.48 77.42 9.59L77.42 9.59Q77.42 9.94 77.32 9.94L77.32 9.94Q77.11 9.94 77.01 9.60L77.01 9.60Q76.82 9.02 76.66 8.92L76.66 8.92Q76.37 8.72 75.32 8.72L75.32 8.72Q74.90 8.72 74.64 8.72Q74.38 8.72 74.31 8.71Q74.23 8.71 74.18 8.71Q74.13 8.71 74.09 8.71L74.09 8.71Q73.51 8.71 73.51 8.97L73.51 8.97Q73.51 9.38 73.50 9.99Q73.49 10.60 73.49 10.99L73.49 10.99L73.49 11.55Q73.49 12.56 73.82 12.66L73.82 12.66Q74.17 12.77 74.42 12.77L74.42 12.77Q75.47 12.77 76.27 12.67Q77.06 12.57 77.46 12.42Q77.85 12.28 78.12 12.10Q78.39 11.93 78.46 11.78Q78.54 11.63 78.62 11.54Q78.69 11.44 78.78 11.44L78.78 11.44Q78.95 11.44 78.95 11.68L78.95 11.68Q78.95 12.28 78.34 12.89Q77.74 13.51 77.29 13.51L77.29 13.51Q76.29 13.51 75.02 13.44Q73.75 13.37 73.44 13.37L73.44 13.37Q73.05 13.37 72.46 13.43Q71.88 13.50 71.54 13.50L71.54 13.50Q71.25 13.50 71.25 13.36L71.25 13.36Q71.25 13.23 71.25 13.19Q71.25 13.15 71.29 13.12Q71.33 13.09 71.38 13.08Q71.43 13.08 71.56 13.03Q71.69 12.99 71.85 12.92L71.85 12.92Q72.18 12.75 72.29 12.26Q72.39 11.77 72.39 10.21L72.39 10.21L72.39 8.47Q72.39 8.09 72.42 7.29Q72.44 6.50 72.44 6.05L72.44 6.05Q72.44 5.67 72.41 4.77L72.41 4.77Q72.39 4.37 72.06 4.14Q71.72 3.92 71.27 3.91L71.27 3.91Q71.05 3.91 71.05 3.65ZM86.51 3.71L86.51 3.71Q86.51 3.53 86.90 3.53L86.90 3.53Q87.04 3.53 87.54 3.54Q88.05 3.56 88.48 3.56L88.48 3.56Q88.73 3.56 88.94 3.54Q89.15 3.53 89.68 3.53L89.68 3.53Q89.92 3.53 89.92 3.71L89.92 3.71Q89.92 3.77 89.85 3.81Q89.78 3.85 89.65 3.91Q89.52 3.96 89.43 4.00L89.43 4.00Q89.00 4.26 89.00 5.71L89.00 5.71Q89.00 6.47 88.98 7.17Q88.96 7.87 88.96 7.90L88.96 7.90Q88.96 8.19 89.08 8.19L89.08 8.19Q89.18 8.19 90.20 7.36Q91.22 6.52 92.23 5.55Q93.24 4.58 93.24 4.27L93.24 4.27Q93.24 4.19 93.20 4.12Q93.16 4.06 93.06 4.02Q92.96 3.98 92.89 3.96Q92.82 3.93 92.69 3.91Q92.57 3.89 92.54 3.88L92.54 3.88Q92.39 3.85 92.39 3.68L92.39 3.68Q92.39 3.53 92.61 3.53L92.61 3.53Q92.64 3.53 92.76 3.54Q92.88 3.54 92.96 3.54L92.96 3.54Q92.99 3.54 93.29 3.56Q93.59 3.57 93.80 3.57L93.80 3.57L95.54 3.53Q95.82 3.53 95.82 3.71L95.82 3.71Q95.82 3.81 95.73 3.86Q95.65 3.91 95.41 3.98Q95.17 4.05 95.00 4.12L95.00 4.12Q94.93 4.14 94.32 4.54L94.32 4.54Q94.19 4.62 92.74 5.84L92.74 5.84Q91.69 6.73 90.30 7.90L90.30 7.90L90.15 8.09Q90.15 8.16 90.30 8.32L90.30 8.32Q90.96 8.97 92.01 10.01L92.01 10.01Q93.95 11.94 94.53 12.42Q95.10 12.91 95.62 12.99L95.62 12.99Q96.03 13.05 96.08 13.16L96.08 13.16Q96.10 13.19 96.10 13.24L96.10 13.24Q96.10 13.37 95.98 13.40Q95.86 13.43 95.28 13.43L95.28 13.43L93.93 13.43Q93.83 13.43 93.78 13.41Q93.73 13.40 93.68 13.37Q93.63 13.34 93.56 13.25Q93.48 13.16 93.37 13.04Q93.27 12.92 93.05 12.68Q92.83 12.43 92.57 12.17L92.57 12.17Q89.60 9.16 89.45 9.03L89.45 9.03Q89.29 8.90 89.18 8.90L89.18 8.90Q88.98 8.90 88.98 9.28L88.98 9.28L88.98 9.32Q88.98 9.37 88.99 9.45Q89.00 9.53 89.00 9.65Q89.00 9.76 89.00 9.95Q89.00 10.14 89.00 10.36L89.00 10.36Q89.00 12.19 89.21 12.57L89.21 12.57Q89.47 13.02 90.15 13.02L90.15 13.02Q90.17 13.02 90.20 13.03Q90.23 13.03 90.26 13.03L90.26 13.03Q90.36 13.03 90.45 13.08Q90.55 13.13 90.55 13.19L90.55 13.19Q90.55 13.34 90.48 13.39Q90.40 13.44 90.20 13.44L90.20 13.44Q89.78 13.44 89.43 13.41Q89.07 13.38 88.87 13.38L88.87 13.38Q88.48 13.38 88.02 13.42Q87.56 13.45 87.33 13.45L87.33 13.45Q86.83 13.45 86.83 13.30L86.83 13.30L86.83 13.24Q86.83 13.15 86.96 13.11Q87.09 13.08 87.29 13.02Q87.49 12.96 87.60 12.85L87.60 12.85Q87.79 12.66 87.84 11.95Q87.89 11.24 87.89 9.69L87.89 9.69L87.89 7.81Q87.89 7.63 87.88 7.12Q87.86 6.61 87.86 6.30L87.86 6.30L87.86 5.66Q87.86 4.94 87.82 4.63L87.82 4.63Q87.78 4.30 87.47 4.12Q87.15 3.93 86.80 3.92L86.80 3.92Q86.51 3.91 86.51 3.71ZM103.64 3.65L103.64 3.65Q103.64 3.46 104.03 3.46L104.03 3.46Q104.09 3.46 104.22 3.47Q104.34 3.49 104.41 3.49L104.41 3.49Q104.45 3.49 105.73 3.52Q107.00 3.56 107.83 3.56L107.83 3.56Q108.12 3.56 109.28 3.53Q110.43 3.50 110.63 3.50L110.63 3.50Q110.89 3.50 110.89 3.82L110.89 3.82Q110.89 3.91 110.81 4.38Q110.73 4.84 110.73 5.25L110.73 5.25Q110.73 5.38 110.66 5.47Q110.59 5.56 110.50 5.56L110.50 5.56Q110.29 5.56 110.29 5.26L110.29 5.26Q110.29 4.89 110.05 4.58Q109.82 4.27 109.47 4.26L109.47 4.26Q108.21 4.16 107.53 4.16L107.53 4.16L107.17 4.16Q106.44 4.16 106.32 4.26Q106.20 4.37 106.18 5.01L106.18 5.01Q106.12 6.02 106.12 7.35L106.12 7.35Q106.12 8.05 106.39 8.06L106.39 8.06L106.74 8.06L107.32 8.06L107.76 8.06Q108.60 8.06 108.88 8.01Q109.16 7.95 109.38 7.80L109.38 7.80Q109.65 7.62 109.70 7.28L109.70 7.28Q109.75 7.04 109.90 7.04L109.90 7.04Q110.03 7.04 110.05 7.08Q110.08 7.13 110.08 7.27L110.08 7.27Q110.08 7.36 110.03 7.91Q109.97 8.46 109.97 8.74L109.97 8.74Q109.97 9.00 109.99 9.24Q110.01 9.48 110.01 9.59L110.01 9.59Q110.01 9.94 109.91 9.94L109.91 9.94Q109.70 9.94 109.61 9.60L109.61 9.60Q109.41 9.02 109.26 8.92L109.26 8.92Q108.96 8.72 107.91 8.72L107.91 8.72Q107.49 8.72 107.23 8.72Q106.97 8.72 106.90 8.71Q106.82 8.71 106.77 8.71Q106.72 8.71 106.68 8.71L106.68 8.71Q106.11 8.71 106.11 8.97L106.11 8.97Q106.11 9.38 106.09 9.99Q106.08 10.60 106.08 10.99L106.08 10.99L106.08 11.55Q106.08 12.56 106.41 12.66L106.41 12.66Q106.76 12.77 107.02 12.77L107.02 12.77Q108.07 12.77 108.86 12.67Q109.65 12.57 110.05 12.42Q110.45 12.28 110.71 12.10Q110.98 11.93 111.06 11.78Q111.13 11.63 111.21 11.54Q111.29 11.44 111.37 11.44L111.37 11.44Q111.54 11.44 111.54 11.68L111.54 11.68Q111.54 12.28 110.94 12.89Q110.33 13.51 109.89 13.51L109.89 13.51Q108.88 13.51 107.61 13.44Q106.34 13.37 106.04 13.37L106.04 13.37Q105.64 13.37 105.06 13.43Q104.47 13.50 104.13 13.50L104.13 13.50Q103.84 13.50 103.84 13.36L103.84 13.36Q103.84 13.23 103.84 13.19Q103.84 13.15 103.88 13.12Q103.92 13.09 103.97 13.08Q104.02 13.08 104.15 13.03Q104.29 12.99 104.44 12.92L104.44 12.92Q104.78 12.75 104.88 12.26Q104.99 11.77 104.99 10.21L104.99 10.21L104.99 8.47Q104.99 8.09 105.01 7.29Q105.03 6.50 105.03 6.05L105.03 6.05Q105.03 5.67 105.00 4.77L105.00 4.77Q104.99 4.37 104.65 4.14Q104.31 3.92 103.87 3.91L103.87 3.91Q103.64 3.91 103.64 3.65ZM119.10 3.65L119.10 3.65Q119.10 3.46 119.49 3.46L119.49 3.46Q119.55 3.46 119.67 3.47Q119.80 3.49 119.87 3.49L119.87 3.49Q119.91 3.49 121.18 3.52Q122.46 3.56 123.28 3.56L123.28 3.56Q123.58 3.56 124.73 3.53Q125.89 3.50 126.08 3.50L126.08 3.50Q126.35 3.50 126.35 3.82L126.35 3.82Q126.35 3.91 126.27 4.38Q126.18 4.84 126.18 5.25L126.18 5.25Q126.18 5.38 126.11 5.47Q126.04 5.56 125.96 5.56L125.96 5.56Q125.75 5.56 125.75 5.26L125.75 5.26Q125.75 4.89 125.51 4.58Q125.27 4.27 124.92 4.26L124.92 4.26Q123.66 4.16 122.99 4.16L122.99 4.16L122.63 4.16Q121.90 4.16 121.78 4.26Q121.66 4.37 121.63 5.01L121.63 5.01Q121.58 6.02 121.58 7.35L121.58 7.35Q121.58 8.05 121.84 8.06L121.84 8.06L122.19 8.06L122.78 8.06L123.21 8.06Q124.05 8.06 124.33 8.01Q124.61 7.95 124.84 7.80L124.84 7.80Q125.10 7.62 125.16 7.28L125.16 7.28Q125.20 7.04 125.36 7.04L125.36 7.04Q125.48 7.04 125.51 7.08Q125.54 7.13 125.54 7.27L125.54 7.27Q125.54 7.36 125.48 7.91Q125.43 8.46 125.43 8.74L125.43 8.74Q125.43 9.00 125.45 9.24Q125.47 9.48 125.47 9.59L125.47 9.59Q125.47 9.94 125.37 9.94L125.37 9.94Q125.16 9.94 125.06 9.60L125.06 9.60Q124.87 9.02 124.71 8.92L124.71 8.92Q124.42 8.72 123.37 8.72L123.37 8.72Q122.95 8.72 122.69 8.72Q122.43 8.72 122.35 8.71Q122.28 8.71 122.23 8.71Q122.18 8.71 122.14 8.71L122.14 8.71Q121.56 8.71 121.56 8.97L121.56 8.97Q121.56 9.38 121.55 9.99Q121.53 10.60 121.53 10.99L121.53 10.99L121.53 11.55Q121.53 12.56 121.87 12.66L121.87 12.66Q122.22 12.77 122.47 12.77L122.47 12.77Q123.52 12.77 124.31 12.67Q125.10 12.57 125.50 12.42Q125.90 12.28 126.17 12.10Q126.43 11.93 126.51 11.78Q126.59 11.63 126.67 11.54Q126.74 11.44 126.83 11.44L126.83 11.44Q126.99 11.44 126.99 11.68L126.99 11.68Q126.99 12.28 126.39 12.89Q125.79 13.51 125.34 13.51L125.34 13.51Q124.33 13.51 123.07 13.44Q121.80 13.37 121.49 13.37L121.49 13.37Q121.10 13.37 120.51 13.43Q119.92 13.50 119.59 13.50L119.59 13.50Q119.29 13.50 119.29 13.36L119.29 13.36Q119.29 13.23 119.29 13.19Q119.29 13.15 119.34 13.12Q119.38 13.09 119.43 13.08Q119.48 13.08 119.61 13.03Q119.74 12.99 119.90 12.92L119.90 12.92Q120.23 12.75 120.34 12.26Q120.44 11.77 120.44 10.21L120.44 10.21L120.44 8.47Q120.44 8.09 120.46 7.29Q120.48 6.50 120.48 6.05L120.48 6.05Q120.48 5.67 120.46 4.77L120.46 4.77Q120.44 4.37 120.11 4.14Q119.77 3.92 119.32 3.91L119.32 3.91Q119.10 3.91 119.10 3.65ZM134.55 3.72L134.55 3.72Q134.55 3.50 134.88 3.50L134.88 3.50Q134.92 3.50 135.03 3.49Q135.14 3.49 135.39 3.49L135.39 3.49Q135.46 3.49 135.78 3.51Q136.09 3.53 136.23 3.53L136.23 3.53Q136.54 3.53 137.42 3.51Q138.31 3.49 138.54 3.49L138.54 3.49Q139.86 3.49 140.81 4.15Q141.76 4.82 141.76 6.06L141.76 6.06Q141.76 6.75 141.51 7.29Q141.26 7.83 140.90 8.13Q140.55 8.44 140.10 8.64Q139.66 8.85 139.32 8.91Q138.98 8.97 138.71 8.97L138.71 8.97Q138.26 8.97 137.80 8.87Q137.34 8.76 137.34 8.65L137.34 8.65Q137.34 8.44 137.52 8.44L137.52 8.44Q137.59 8.44 137.81 8.50Q138.03 8.55 138.24 8.55L138.24 8.55Q138.56 8.55 138.92 8.46Q139.29 8.37 139.68 8.17Q140.07 7.97 140.32 7.55Q140.57 7.14 140.57 6.59L140.57 6.59Q140.57 5.66 139.82 4.85Q139.06 4.05 137.73 4.05L137.73 4.05Q137.30 4.05 137.14 4.30Q136.99 4.56 136.99 5.47L136.99 5.47Q136.99 8.39 136.98 8.80Q136.96 9.21 136.96 11.26L136.96 11.26Q136.96 12.49 137.54 12.87L137.54 12.87Q137.69 12.96 137.92 12.99Q138.15 13.02 138.31 13.01Q138.46 13.01 138.58 13.07Q138.70 13.13 138.70 13.30L138.70 13.30Q138.70 13.54 138.38 13.54Q138.05 13.54 137.24 13.50Q136.43 13.47 136.37 13.47L136.37 13.47Q136.23 13.47 135.82 13.50Q135.41 13.52 135.07 13.52L135.07 13.52Q134.64 13.52 134.64 13.37L134.64 13.37Q134.64 13.29 134.66 13.23Q134.68 13.17 134.70 13.14Q134.72 13.10 134.79 13.08Q134.86 13.05 134.89 13.03Q134.92 13.02 135.02 13.00Q135.13 12.98 135.17 12.96L135.17 12.96Q135.20 12.95 135.25 12.94Q135.31 12.94 135.33 12.93Q135.35 12.92 135.40 12.89Q135.45 12.85 135.48 12.79Q135.51 12.73 135.56 12.62Q135.60 12.52 135.66 12.35L135.66 12.35Q135.76 12.08 135.81 10.25Q135.87 8.41 135.87 7.41L135.87 7.41Q135.87 6.54 135.86 5.80Q135.86 5.07 135.86 5.03L135.86 5.03Q135.86 4.65 135.62 4.28Q135.38 3.91 134.83 3.91L134.83 3.91Q134.55 3.91 134.55 3.72ZM149.45 3.65L149.45 3.65Q149.45 3.46 149.84 3.46L149.84 3.46Q149.90 3.46 150.02 3.47Q150.15 3.49 150.22 3.49L150.22 3.49Q150.26 3.49 151.54 3.52Q152.81 3.56 153.64 3.56L153.64 3.56Q153.93 3.56 155.08 3.53Q156.24 3.50 156.44 3.50L156.44 3.50Q156.70 3.50 156.70 3.82L156.70 3.82Q156.70 3.91 156.62 4.38Q156.53 4.84 156.53 5.25L156.53 5.25Q156.53 5.38 156.46 5.47Q156.39 5.56 156.31 5.56L156.31 5.56Q156.10 5.56 156.10 5.26L156.10 5.26Q156.10 4.89 155.86 4.58Q155.62 4.27 155.27 4.26L155.27 4.26Q154.01 4.16 153.34 4.16L153.34 4.16L152.98 4.16Q152.25 4.16 152.13 4.26Q152.01 4.37 151.98 5.01L151.98 5.01Q151.93 6.02 151.93 7.35L151.93 7.35Q151.93 8.05 152.19 8.06L152.19 8.06L152.54 8.06L153.13 8.06L153.57 8.06Q154.41 8.06 154.69 8.01Q154.97 7.95 155.19 7.80L155.19 7.80Q155.46 7.62 155.51 7.28L155.51 7.28Q155.55 7.04 155.71 7.04L155.71 7.04Q155.83 7.04 155.86 7.08Q155.89 7.13 155.89 7.27L155.89 7.27Q155.89 7.36 155.83 7.91Q155.78 8.46 155.78 8.74L155.78 8.74Q155.78 9.00 155.80 9.24Q155.82 9.48 155.82 9.59L155.82 9.59Q155.82 9.94 155.72 9.94L155.72 9.94Q155.51 9.94 155.41 9.60L155.41 9.60Q155.22 9.02 155.06 8.92L155.06 8.92Q154.77 8.72 153.72 8.72L153.72 8.72Q153.30 8.72 153.04 8.72Q152.78 8.72 152.70 8.71Q152.63 8.71 152.58 8.71Q152.53 8.71 152.49 8.71L152.49 8.71Q151.91 8.71 151.91 8.97L151.91 8.97Q151.91 9.38 151.90 9.99Q151.89 10.60 151.89 10.99L151.89 10.99L151.89 11.55Q151.89 12.56 152.22 12.66L152.22 12.66Q152.57 12.77 152.82 12.77L152.82 12.77Q153.87 12.77 154.66 12.67Q155.46 12.57 155.85 12.42Q156.25 12.28 156.52 12.10Q156.79 11.93 156.86 11.78Q156.94 11.63 157.02 11.54Q157.09 11.44 157.18 11.44L157.18 11.44Q157.35 11.44 157.35 11.68L157.35 11.68Q157.35 12.28 156.74 12.89Q156.14 13.51 155.69 13.51L155.69 13.51Q154.69 13.51 153.42 13.44Q152.15 13.37 151.84 13.37L151.84 13.37Q151.45 13.37 150.86 13.43Q150.28 13.50 149.94 13.50L149.94 13.50Q149.65 13.50 149.65 13.36L149.65 13.36Q149.65 13.23 149.65 13.19Q149.65 13.15 149.69 13.12Q149.73 13.09 149.78 13.08Q149.83 13.08 149.96 13.03Q150.09 12.99 150.25 12.92L150.25 12.92Q150.58 12.75 150.69 12.26Q150.79 11.77 150.79 10.21L150.79 10.21L150.79 8.47Q150.79 8.09 150.81 7.29Q150.84 6.50 150.84 6.05L150.84 6.05Q150.84 5.67 150.81 4.77L150.81 4.77Q150.79 4.37 150.46 4.14Q150.12 3.92 149.67 3.91L149.67 3.91Q149.45 3.91 149.45 3.65ZM164.91 3.70L164.91 3.70Q164.91 3.47 165.31 3.47L165.31 3.47L167.64 3.47Q167.96 3.47 168.38 3.45Q168.80 3.43 169.04 3.43L169.04 3.43Q170.30 3.43 171.19 4.07Q172.09 4.70 172.09 5.78L172.09 5.78Q172.09 6.50 171.81 7.03Q171.54 7.57 171.21 7.81Q170.88 8.05 170.61 8.22Q170.34 8.40 170.34 8.46L170.34 8.46Q170.34 8.62 171.51 10.27Q172.69 11.91 173.12 12.38L173.12 12.38Q173.66 13.03 174.41 13.03L174.41 13.03Q174.61 13.03 174.61 13.20L174.61 13.20Q174.61 13.41 174.44 13.48Q174.27 13.55 173.57 13.55L173.57 13.55Q172.91 13.55 172.37 13.23L172.37 13.23Q171.67 12.82 170.00 10.09L170.00 10.09Q169.90 9.94 169.86 9.87L169.86 9.87Q169.19 8.78 168.83 8.78L168.83 8.78L168.53 8.78L167.68 8.78Q167.51 8.78 167.47 8.92Q167.44 9.06 167.44 9.77L167.44 9.77Q167.44 10.44 167.44 10.88Q167.44 11.31 167.45 11.43Q167.45 11.55 167.45 11.63Q167.45 11.70 167.45 11.75L167.45 11.75Q167.45 12.32 167.72 12.63Q167.99 12.95 168.31 13.00Q168.64 13.05 168.91 13.11Q169.18 13.17 169.18 13.31L169.18 13.31Q169.18 13.54 168.92 13.54L168.92 13.54Q168.91 13.54 167.96 13.49Q167.01 13.44 166.92 13.44L166.92 13.44Q166.52 13.44 165.96 13.47Q165.40 13.50 165.38 13.50L165.38 13.50Q165.09 13.50 165.09 13.27L165.09 13.27Q165.09 13.12 165.27 13.05Q165.45 12.99 165.68 12.96Q165.90 12.94 166.08 12.66Q166.26 12.38 166.26 11.86L166.26 11.86Q166.26 11.49 166.27 9.90Q166.28 8.30 166.28 7.45L166.28 7.45Q166.28 6.58 166.27 5.86Q166.26 5.14 166.26 5.08L166.26 5.08Q166.26 4.56 166.05 4.29Q165.84 4.02 165.58 3.98Q165.33 3.95 165.12 3.89Q164.91 3.84 164.91 3.70ZM167.44 5.54L167.44 5.94Q167.44 7.38 167.45 7.72Q167.47 8.06 167.55 8.12L167.55 8.12Q167.76 8.25 168.15 8.25L168.15 8.25L168.29 8.25L168.70 8.25Q169.89 8.25 170.40 7.70Q170.91 7.15 170.91 6.30L170.91 6.30Q170.91 5.43 170.23 4.72Q169.55 4.00 168.18 4.00L168.18 4.00Q167.66 4.00 167.55 4.28Q167.44 4.55 167.44 5.54L167.44 5.54ZM182.29 10.82L182.29 10.82Q182.29 10.53 182.49 10.53L182.49 10.53Q182.67 10.53 182.71 10.67L182.71 10.67Q182.85 11.00 182.97 11.25Q183.09 11.49 183.36 11.85Q183.62 12.21 183.93 12.44Q184.24 12.67 184.72 12.84Q185.21 13.01 185.78 13.01L185.78 13.01Q186.83 13.01 187.47 12.45Q188.10 11.90 188.10 11.00L188.10 11.00Q188.10 10.35 187.67 9.90Q187.24 9.46 186.68 9.27Q186.12 9.09 185.25 8.77Q184.39 8.46 183.85 8.13L183.85 8.13Q182.57 7.38 182.57 6.08L182.57 6.08Q182.57 4.83 183.48 4.08Q184.38 3.33 185.82 3.33L185.82 3.33Q186.35 3.33 187.09 3.56Q187.82 3.79 187.84 3.79L187.84 3.79Q187.88 3.79 187.99 3.74Q188.10 3.68 188.16 3.68L188.16 3.68Q188.34 3.68 188.37 3.79L188.37 3.79Q188.66 5.49 188.66 5.70L188.66 5.70Q188.66 6.09 188.47 6.09L188.47 6.09Q188.34 6.09 188.27 5.89L188.27 5.89Q188.10 5.49 187.94 5.24Q187.78 4.98 187.71 4.91Q187.64 4.84 187.35 4.58L187.35 4.58Q186.59 3.91 185.51 3.91L185.51 3.91Q184.65 3.91 184.06 4.33Q183.47 4.75 183.47 5.46L183.47 5.46Q183.47 6.09 183.81 6.50Q184.16 6.90 184.73 7.13Q185.30 7.35 185.93 7.55Q186.56 7.74 187.27 8.09Q187.98 8.44 188.44 8.93L188.44 8.93Q189.00 9.53 189.00 10.43L189.00 10.43Q189.00 11.90 188.06 12.76Q187.12 13.62 185.74 13.62L185.74 13.62Q184.77 13.62 184.18 13.52Q183.60 13.41 182.98 13.09L182.98 13.09Q182.80 12.98 182.55 12.00Q182.29 11.02 182.29 10.82Z"></path></g></svg>