<svg width="41" height="40" viewBox="0 0 41 40" fill="none" xmlns="http://www.w3.org/2000/svg">
<path d="M20.5 18C23.1522 18 25.6957 19.0536 27.5711 20.9289C29.4464 22.8043 30.5 25.3478 30.5 28V40H26.5V28C26.5001 26.4696 25.9153 24.997 24.8654 23.8835C23.8155 22.77 22.3798 22.0998 20.852 22.01L20.5 22C18.9696 21.9999 17.497 22.5847 16.3835 23.6346C15.27 24.6845 14.5998 26.1202 14.51 27.648L14.5 28V40H10.5V28C10.5 25.3478 11.5536 22.8043 13.4289 20.9289C15.3043 19.0536 17.8478 18 20.5 18ZM7.5 24C8.058 24 8.6 24.066 9.12 24.188C8.77807 25.206 8.57556 26.2656 8.518 27.338L8.5 28V28.172C8.2701 28.0898 8.03098 28.036 7.788 28.012L7.5 28C6.75455 28 6.03579 28.2775 5.48378 28.7785C4.93178 29.2795 4.58606 29.968 4.514 30.71L4.5 31V40H0.5V31C0.5 29.1435 1.2375 27.363 2.55025 26.0503C3.86301 24.7375 5.64348 24 7.5 24ZM33.5 24C35.3565 24 37.137 24.7375 38.4497 26.0503C39.7625 27.363 40.5 29.1435 40.5 31V40H36.5V31C36.5 30.2545 36.2225 29.5358 35.7215 28.9838C35.2205 28.4318 34.532 28.0861 33.79 28.014L33.5 28C33.15 28 32.814 28.06 32.5 28.17V28C32.5 26.668 32.284 25.388 31.884 24.192C32.4 24.066 32.944 24 33.5 24ZM7.5 12C8.82608 12 10.0979 12.5268 11.0355 13.4645C11.9732 14.4021 12.5 15.6739 12.5 17C12.5 18.3261 11.9732 19.5979 11.0355 20.5355C10.0979 21.4732 8.82608 22 7.5 22C6.17392 22 4.90215 21.4732 3.96447 20.5355C3.02678 19.5979 2.5 18.3261 2.5 17C2.5 15.6739 3.02678 14.4021 3.96447 13.4645C4.90215 12.5268 6.17392 12 7.5 12ZM33.5 12C34.8261 12 36.0979 12.5268 37.0355 13.4645C37.9732 14.4021 38.5 15.6739 38.5 17C38.5 18.3261 37.9732 19.5979 37.0355 20.5355C36.0979 21.4732 34.8261 22 33.5 22C32.1739 22 30.9021 21.4732 29.9645 20.5355C29.0268 19.5979 28.5 18.3261 28.5 17C28.5 15.6739 29.0268 14.4021 29.9645 13.4645C30.9021 12.5268 32.1739 12 33.5 12ZM7.5 16C7.23478 16 6.98043 16.1054 6.79289 16.2929C6.60536 16.4804 6.5 16.7348 6.5 17C6.5 17.2652 6.60536 17.5196 6.79289 17.7071C6.98043 17.8946 7.23478 18 7.5 18C7.76522 18 8.01957 17.8946 8.20711 17.7071C8.39464 17.5196 8.5 17.2652 8.5 17C8.5 16.7348 8.39464 16.4804 8.20711 16.2929C8.01957 16.1054 7.76522 16 7.5 16ZM33.5 16C33.2348 16 32.9804 16.1054 32.7929 16.2929C32.6054 16.4804 32.5 16.7348 32.5 17C32.5 17.2652 32.6054 17.5196 32.7929 17.7071C32.9804 17.8946 33.2348 18 33.5 18C33.7652 18 34.0196 17.8946 34.2071 17.7071C34.3946 17.5196 34.5 17.2652 34.5 17C34.5 16.7348 34.3946 16.4804 34.2071 16.2929C34.0196 16.1054 33.7652 16 33.5 16ZM20.5 0C22.6217 0 24.6566 0.842855 26.1569 2.34315C27.6571 3.84344 28.5 5.87827 28.5 8C28.5 10.1217 27.6571 12.1566 26.1569 13.6569C24.6566 15.1571 22.6217 16 20.5 16C18.3783 16 16.3434 15.1571 14.8431 13.6569C13.3429 12.1566 12.5 10.1217 12.5 8C12.5 5.87827 13.3429 3.84344 14.8431 2.34315C16.3434 0.842855 18.3783 0 20.5 0ZM20.5 4C19.4391 4 18.4217 4.42143 17.6716 5.17157C16.9214 5.92172 16.5 6.93913 16.5 8C16.5 9.06087 16.9214 10.0783 17.6716 10.8284C18.4217 11.5786 19.4391 12 20.5 12C21.5609 12 22.5783 11.5786 23.3284 10.8284C24.0786 10.0783 24.5 9.06087 24.5 8C24.5 6.93913 24.0786 5.92172 23.3284 5.17157C22.5783 4.42143 21.5609 4 20.5 4Z" fill="#0A86B6"/>
</svg>
