<svg width="40" height="40" viewBox="0 0 40 40" fill="none" xmlns="http://www.w3.org/2000/svg">
<path d="M32.8205 20C34.2564 20 35.6308 20.2889 36.9231 20.7778V17.7778L34.8718 6.66667H2.05128L0 17.7778V22.2222H2.05128V35.5556H20.6974C20.5949 34.8222 20.5128 34.0889 20.5128 33.3333C20.5128 30.6 21.2718 28.0889 22.5641 25.9778V22.2222H26.0308C27.9795 20.8222 30.2974 20 32.8205 20ZM18.4615 31.1111H6.15385V22.2222H18.4615V31.1111ZM4.18462 17.7778L5.41538 11.1111H31.5077L32.7385 17.7778H4.18462ZM34.8718 4.44444H2.05128V0H34.8718V4.44444ZM40 29.4444L30.2564 40L24.6154 33.3333L26.9949 30.7556L30.2564 34.2889L37.6205 26.3111L40 29.4444Z" fill="#0A86B6"/>
</svg>
