<svg width="40" height="40" viewBox="0 0 40 40" fill="none" xmlns="http://www.w3.org/2000/svg">
<path d="M20 40C25.3043 40 30.3914 37.8929 34.1421 34.1421C37.8929 30.3914 40 25.3043 40 20C40 14.6957 37.8929 9.60859 34.1421 5.85786C30.3914 2.10714 25.3043 0 20 0C14.6957 0 9.60859 2.10714 5.85786 5.85786C2.10714 9.60859 0 14.6957 0 20C0 25.3043 2.10714 30.3914 5.85786 34.1421C9.60859 37.8929 14.6957 40 20 40ZM20 3.75C24.3098 3.75 28.443 5.46205 31.4905 8.50951C34.538 11.557 36.25 15.6902 36.25 20C36.25 24.3098 34.538 28.443 31.4905 31.4905C28.443 34.538 24.3098 36.25 20 36.25C15.6902 36.25 11.557 34.538 8.50951 31.4905C5.46205 28.443 3.75 24.3098 3.75 20C3.75 15.6902 5.46205 11.557 8.50951 8.50951C11.557 5.46205 15.6902 3.75 20 3.75ZM20 23.39C24.53 23.39 28.8375 22.1875 32.5 20.0725C31.93 27.0425 26.5175 32.5 20 32.5C13.4825 32.5 8.07 27.035 7.5 20.0675C11.3038 22.2505 15.6143 23.3962 20 23.39ZM10 13.75C10 11.68 11.12 10 12.5 10C13.88 10 15 11.68 15 13.75C15 15.82 13.88 17.5 12.5 17.5C11.12 17.5 10 15.82 10 13.75ZM25 13.75C25 11.68 26.12 10 27.5 10C28.88 10 30 11.68 30 13.75C30 15.82 28.88 17.5 27.5 17.5C26.12 17.5 25 15.82 25 13.75Z" fill="#0A86B6"/>
</svg>
